<mxfile host="Electron" modified="2023-04-10T18:55:08.026Z" agent="Mozilla/5.0 (Windows NT 10.0; Win64; x64) AppleWebKit/537.36 (KHTML, like Gecko) draw.io/21.1.2 Chrome/106.0.5249.199 Electron/21.4.3 Safari/537.36" etag="JycTlO_yQ-EaJSaT57L3" version="21.1.2" type="device">
  <diagram name="Page-1" id="3Qb1NAZS_UaSU_KhE307">
    <mxGraphModel dx="819" dy="482" grid="0" gridSize="10" guides="1" tooltips="1" connect="1" arrows="1" fold="1" page="0" pageScale="1" pageWidth="850" pageHeight="1100" math="0" shadow="0">
      <root>
        <mxCell id="0" />
        <mxCell id="1" parent="0" />
        <mxCell id="hYAwL6fcFni5QZWfqqvK-1" value=":app" style="rounded=1;whiteSpace=wrap;html=1;fillColor=#d5e8d4;strokeColor=#82b366;" vertex="1" parent="1">
          <mxGeometry x="410" y="231" width="50" height="20" as="geometry" />
        </mxCell>
        <mxCell id="hYAwL6fcFni5QZWfqqvK-45" style="edgeStyle=orthogonalEdgeStyle;rounded=0;orthogonalLoop=1;jettySize=auto;html=1;exitX=0;exitY=0.75;exitDx=0;exitDy=0;entryX=0;entryY=0.25;entryDx=0;entryDy=0;" edge="1" parent="1" source="hYAwL6fcFni5QZWfqqvK-2" target="hYAwL6fcFni5QZWfqqvK-20">
          <mxGeometry relative="1" as="geometry" />
        </mxCell>
        <mxCell id="hYAwL6fcFni5QZWfqqvK-47" style="edgeStyle=orthogonalEdgeStyle;rounded=0;orthogonalLoop=1;jettySize=auto;html=1;exitX=0.25;exitY=1;exitDx=0;exitDy=0;entryX=0.25;entryY=0;entryDx=0;entryDy=0;" edge="1" parent="1" source="hYAwL6fcFni5QZWfqqvK-2" target="hYAwL6fcFni5QZWfqqvK-24">
          <mxGeometry relative="1" as="geometry" />
        </mxCell>
        <mxCell id="hYAwL6fcFni5QZWfqqvK-2" value=":feature:saved-music" style="rounded=1;whiteSpace=wrap;html=1;fillColor=#ffe6cc;strokeColor=#d79b00;" vertex="1" parent="1">
          <mxGeometry x="270" y="310" width="125" height="20" as="geometry" />
        </mxCell>
        <mxCell id="hYAwL6fcFni5QZWfqqvK-39" style="edgeStyle=orthogonalEdgeStyle;rounded=0;orthogonalLoop=1;jettySize=auto;html=1;exitX=0.75;exitY=1;exitDx=0;exitDy=0;entryX=0.75;entryY=0;entryDx=0;entryDy=0;" edge="1" parent="1" source="hYAwL6fcFni5QZWfqqvK-3" target="hYAwL6fcFni5QZWfqqvK-22">
          <mxGeometry relative="1" as="geometry">
            <Array as="points">
              <mxPoint x="690" y="300" />
              <mxPoint x="690" y="380" />
              <mxPoint x="583" y="380" />
            </Array>
          </mxGeometry>
        </mxCell>
        <mxCell id="hYAwL6fcFni5QZWfqqvK-41" style="edgeStyle=orthogonalEdgeStyle;rounded=0;orthogonalLoop=1;jettySize=auto;html=1;exitX=1;exitY=0.5;exitDx=0;exitDy=0;entryX=1;entryY=0.25;entryDx=0;entryDy=0;" edge="1" parent="1" source="hYAwL6fcFni5QZWfqqvK-3" target="hYAwL6fcFni5QZWfqqvK-20">
          <mxGeometry relative="1" as="geometry">
            <Array as="points">
              <mxPoint x="700" y="290" />
              <mxPoint x="700" y="525" />
            </Array>
          </mxGeometry>
        </mxCell>
        <mxCell id="hYAwL6fcFni5QZWfqqvK-3" value=":feature:youtube-downloader" style="rounded=1;whiteSpace=wrap;html=1;fillColor=#ffe6cc;strokeColor=#d79b00;" vertex="1" parent="1">
          <mxGeometry x="496" y="280" width="170" height="20" as="geometry" />
        </mxCell>
        <mxCell id="hYAwL6fcFni5QZWfqqvK-48" style="edgeStyle=orthogonalEdgeStyle;rounded=0;orthogonalLoop=1;jettySize=auto;html=1;exitX=0.5;exitY=1;exitDx=0;exitDy=0;entryX=0.5;entryY=0;entryDx=0;entryDy=0;" edge="1" parent="1" source="hYAwL6fcFni5QZWfqqvK-4" target="hYAwL6fcFni5QZWfqqvK-24">
          <mxGeometry relative="1" as="geometry" />
        </mxCell>
        <mxCell id="hYAwL6fcFni5QZWfqqvK-49" style="edgeStyle=orthogonalEdgeStyle;rounded=0;orthogonalLoop=1;jettySize=auto;html=1;exitX=0.75;exitY=1;exitDx=0;exitDy=0;entryX=0.5;entryY=0;entryDx=0;entryDy=0;" edge="1" parent="1" source="hYAwL6fcFni5QZWfqqvK-4" target="hYAwL6fcFni5QZWfqqvK-20">
          <mxGeometry relative="1" as="geometry">
            <Array as="points">
              <mxPoint x="398" y="450" />
              <mxPoint x="450" y="450" />
            </Array>
          </mxGeometry>
        </mxCell>
        <mxCell id="hYAwL6fcFni5QZWfqqvK-50" style="edgeStyle=orthogonalEdgeStyle;rounded=0;orthogonalLoop=1;jettySize=auto;html=1;exitX=1;exitY=0.75;exitDx=0;exitDy=0;entryX=0.25;entryY=1;entryDx=0;entryDy=0;" edge="1" parent="1" source="hYAwL6fcFni5QZWfqqvK-4" target="hYAwL6fcFni5QZWfqqvK-6">
          <mxGeometry relative="1" as="geometry">
            <Array as="points">
              <mxPoint x="430" y="355" />
              <mxPoint x="430" y="390" />
              <mxPoint x="484" y="390" />
            </Array>
          </mxGeometry>
        </mxCell>
        <mxCell id="hYAwL6fcFni5QZWfqqvK-68" style="edgeStyle=orthogonalEdgeStyle;rounded=0;orthogonalLoop=1;jettySize=auto;html=1;exitX=0;exitY=0.5;exitDx=0;exitDy=0;entryX=0;entryY=0.5;entryDx=0;entryDy=0;" edge="1" parent="1" source="hYAwL6fcFni5QZWfqqvK-4" target="hYAwL6fcFni5QZWfqqvK-23">
          <mxGeometry relative="1" as="geometry" />
        </mxCell>
        <mxCell id="hYAwL6fcFni5QZWfqqvK-4" value=":feature:player" style="rounded=1;whiteSpace=wrap;html=1;fillColor=#ffe6cc;strokeColor=#d79b00;" vertex="1" parent="1">
          <mxGeometry x="330" y="340" width="90" height="20" as="geometry" />
        </mxCell>
        <mxCell id="hYAwL6fcFni5QZWfqqvK-43" style="edgeStyle=orthogonalEdgeStyle;rounded=0;orthogonalLoop=1;jettySize=auto;html=1;exitX=1;exitY=0.5;exitDx=0;exitDy=0;entryX=1;entryY=0.75;entryDx=0;entryDy=0;" edge="1" parent="1" source="hYAwL6fcFni5QZWfqqvK-5" target="hYAwL6fcFni5QZWfqqvK-20">
          <mxGeometry relative="1" as="geometry">
            <Array as="points">
              <mxPoint x="640" y="320" />
              <mxPoint x="640" y="535" />
            </Array>
          </mxGeometry>
        </mxCell>
        <mxCell id="hYAwL6fcFni5QZWfqqvK-5" value=":feature:playlist-editor" style="rounded=1;whiteSpace=wrap;html=1;fillColor=#ffe6cc;strokeColor=#d79b00;" vertex="1" parent="1">
          <mxGeometry x="472" y="310" width="130" height="20" as="geometry" />
        </mxCell>
        <mxCell id="hYAwL6fcFni5QZWfqqvK-64" style="edgeStyle=orthogonalEdgeStyle;rounded=0;orthogonalLoop=1;jettySize=auto;html=1;exitX=0.5;exitY=1;exitDx=0;exitDy=0;entryX=0.75;entryY=0;entryDx=0;entryDy=0;" edge="1" parent="1" source="hYAwL6fcFni5QZWfqqvK-6" target="hYAwL6fcFni5QZWfqqvK-24">
          <mxGeometry relative="1" as="geometry" />
        </mxCell>
        <mxCell id="hYAwL6fcFni5QZWfqqvK-65" style="edgeStyle=orthogonalEdgeStyle;rounded=0;orthogonalLoop=1;jettySize=auto;html=1;exitX=1;exitY=0.5;exitDx=0;exitDy=0;entryX=0.5;entryY=1;entryDx=0;entryDy=0;" edge="1" parent="1" source="hYAwL6fcFni5QZWfqqvK-6" target="hYAwL6fcFni5QZWfqqvK-23">
          <mxGeometry relative="1" as="geometry">
            <Array as="points">
              <mxPoint x="660" y="350" />
              <mxPoint x="660" y="620" />
              <mxPoint x="335" y="620" />
            </Array>
          </mxGeometry>
        </mxCell>
        <mxCell id="hYAwL6fcFni5QZWfqqvK-6" value=":feature:equalizer" style="rounded=1;whiteSpace=wrap;html=1;fillColor=#ffe6cc;strokeColor=#d79b00;" vertex="1" parent="1">
          <mxGeometry x="456" y="340" width="110" height="20" as="geometry" />
        </mxCell>
        <mxCell id="hYAwL6fcFni5QZWfqqvK-51" style="edgeStyle=orthogonalEdgeStyle;rounded=0;orthogonalLoop=1;jettySize=auto;html=1;exitX=0;exitY=0.75;exitDx=0;exitDy=0;entryX=0.25;entryY=1;entryDx=0;entryDy=0;" edge="1" parent="1" source="hYAwL6fcFni5QZWfqqvK-7" target="hYAwL6fcFni5QZWfqqvK-20">
          <mxGeometry relative="1" as="geometry" />
        </mxCell>
        <mxCell id="hYAwL6fcFni5QZWfqqvK-52" style="edgeStyle=orthogonalEdgeStyle;rounded=0;orthogonalLoop=1;jettySize=auto;html=1;exitX=0.25;exitY=1;exitDx=0;exitDy=0;entryX=0.25;entryY=0;entryDx=0;entryDy=0;" edge="1" parent="1" source="hYAwL6fcFni5QZWfqqvK-7" target="hYAwL6fcFni5QZWfqqvK-22">
          <mxGeometry relative="1" as="geometry">
            <Array as="points">
              <mxPoint x="260" y="430" />
              <mxPoint x="503" y="430" />
            </Array>
          </mxGeometry>
        </mxCell>
        <mxCell id="hYAwL6fcFni5QZWfqqvK-7" value=":feature:download-manager" style="rounded=1;whiteSpace=wrap;html=1;fillColor=#ffe6cc;strokeColor=#d79b00;" vertex="1" parent="1">
          <mxGeometry x="220" y="280" width="160" height="20" as="geometry" />
        </mxCell>
        <mxCell id="hYAwL6fcFni5QZWfqqvK-13" value="" style="endArrow=classic;html=1;rounded=0;exitX=0;exitY=1;exitDx=0;exitDy=0;entryX=1;entryY=0.5;entryDx=0;entryDy=0;" edge="1" parent="1" source="hYAwL6fcFni5QZWfqqvK-1" target="hYAwL6fcFni5QZWfqqvK-7">
          <mxGeometry width="50" height="50" relative="1" as="geometry">
            <mxPoint x="450" y="330" as="sourcePoint" />
            <mxPoint x="500" y="280" as="targetPoint" />
          </mxGeometry>
        </mxCell>
        <mxCell id="hYAwL6fcFni5QZWfqqvK-14" value="" style="endArrow=classic;html=1;rounded=0;exitX=1;exitY=1;exitDx=0;exitDy=0;entryX=0;entryY=0.5;entryDx=0;entryDy=0;" edge="1" parent="1" source="hYAwL6fcFni5QZWfqqvK-1" target="hYAwL6fcFni5QZWfqqvK-3">
          <mxGeometry width="50" height="50" relative="1" as="geometry">
            <mxPoint x="450" y="330" as="sourcePoint" />
            <mxPoint x="500" y="280" as="targetPoint" />
          </mxGeometry>
        </mxCell>
        <mxCell id="hYAwL6fcFni5QZWfqqvK-15" value="" style="endArrow=classic;html=1;rounded=0;exitX=0.25;exitY=1;exitDx=0;exitDy=0;entryX=1;entryY=0.5;entryDx=0;entryDy=0;" edge="1" parent="1" source="hYAwL6fcFni5QZWfqqvK-1" target="hYAwL6fcFni5QZWfqqvK-2">
          <mxGeometry width="50" height="50" relative="1" as="geometry">
            <mxPoint x="450" y="330" as="sourcePoint" />
            <mxPoint x="500" y="280" as="targetPoint" />
          </mxGeometry>
        </mxCell>
        <mxCell id="hYAwL6fcFni5QZWfqqvK-16" value="" style="endArrow=classic;html=1;rounded=0;exitX=0.75;exitY=1;exitDx=0;exitDy=0;entryX=0;entryY=0.5;entryDx=0;entryDy=0;" edge="1" parent="1" source="hYAwL6fcFni5QZWfqqvK-1" target="hYAwL6fcFni5QZWfqqvK-5">
          <mxGeometry width="50" height="50" relative="1" as="geometry">
            <mxPoint x="450" y="330" as="sourcePoint" />
            <mxPoint x="500" y="280" as="targetPoint" />
          </mxGeometry>
        </mxCell>
        <mxCell id="hYAwL6fcFni5QZWfqqvK-17" value="" style="endArrow=classic;html=1;rounded=0;exitX=0.5;exitY=1;exitDx=0;exitDy=0;entryX=1;entryY=0.5;entryDx=0;entryDy=0;" edge="1" parent="1" source="hYAwL6fcFni5QZWfqqvK-1" target="hYAwL6fcFni5QZWfqqvK-4">
          <mxGeometry width="50" height="50" relative="1" as="geometry">
            <mxPoint x="450" y="330" as="sourcePoint" />
            <mxPoint x="500" y="280" as="targetPoint" />
          </mxGeometry>
        </mxCell>
        <mxCell id="hYAwL6fcFni5QZWfqqvK-18" value="" style="endArrow=classic;html=1;rounded=0;exitX=0.5;exitY=1;exitDx=0;exitDy=0;entryX=0;entryY=0.5;entryDx=0;entryDy=0;" edge="1" parent="1" source="hYAwL6fcFni5QZWfqqvK-1" target="hYAwL6fcFni5QZWfqqvK-6">
          <mxGeometry width="50" height="50" relative="1" as="geometry">
            <mxPoint x="450" y="330" as="sourcePoint" />
            <mxPoint x="500" y="280" as="targetPoint" />
          </mxGeometry>
        </mxCell>
        <mxCell id="hYAwL6fcFni5QZWfqqvK-19" value=":core:common" style="rounded=1;whiteSpace=wrap;html=1;fillColor=#dae8fc;strokeColor=#6c8ebf;" vertex="1" parent="1">
          <mxGeometry x="516" y="580" width="90" height="20" as="geometry" />
        </mxCell>
        <mxCell id="hYAwL6fcFni5QZWfqqvK-20" value=":core:data" style="rounded=1;whiteSpace=wrap;html=1;fillColor=#dae8fc;strokeColor=#6c8ebf;" vertex="1" parent="1">
          <mxGeometry x="405" y="520" width="90" height="20" as="geometry" />
        </mxCell>
        <mxCell id="hYAwL6fcFni5QZWfqqvK-21" value=":core:database" style="rounded=1;whiteSpace=wrap;html=1;fillColor=#dae8fc;strokeColor=#6c8ebf;" vertex="1" parent="1">
          <mxGeometry x="405" y="580" width="90" height="20" as="geometry" />
        </mxCell>
        <mxCell id="hYAwL6fcFni5QZWfqqvK-31" style="edgeStyle=orthogonalEdgeStyle;rounded=0;orthogonalLoop=1;jettySize=auto;html=1;exitX=0.5;exitY=1;exitDx=0;exitDy=0;entryX=0.75;entryY=0;entryDx=0;entryDy=0;" edge="1" parent="1" source="hYAwL6fcFni5QZWfqqvK-22" target="hYAwL6fcFni5QZWfqqvK-20">
          <mxGeometry relative="1" as="geometry">
            <Array as="points">
              <mxPoint x="540" y="500" />
              <mxPoint x="472" y="500" />
            </Array>
          </mxGeometry>
        </mxCell>
        <mxCell id="hYAwL6fcFni5QZWfqqvK-22" value=":core:downloader:youtube" style="rounded=1;whiteSpace=wrap;html=1;fillColor=#dae8fc;strokeColor=#6c8ebf;" vertex="1" parent="1">
          <mxGeometry x="463" y="460" width="160" height="20" as="geometry" />
        </mxCell>
        <mxCell id="hYAwL6fcFni5QZWfqqvK-23" value=":core:model" style="rounded=1;whiteSpace=wrap;html=1;fillColor=#dae8fc;strokeColor=#6c8ebf;" vertex="1" parent="1">
          <mxGeometry x="290" y="580" width="90" height="20" as="geometry" />
        </mxCell>
        <mxCell id="hYAwL6fcFni5QZWfqqvK-30" style="edgeStyle=orthogonalEdgeStyle;rounded=0;orthogonalLoop=1;jettySize=auto;html=1;exitX=0.5;exitY=1;exitDx=0;exitDy=0;entryX=0.25;entryY=0;entryDx=0;entryDy=0;" edge="1" parent="1" source="hYAwL6fcFni5QZWfqqvK-24" target="hYAwL6fcFni5QZWfqqvK-20">
          <mxGeometry relative="1" as="geometry" />
        </mxCell>
        <mxCell id="hYAwL6fcFni5QZWfqqvK-24" value=":core:player" style="rounded=1;whiteSpace=wrap;html=1;fillColor=#dae8fc;strokeColor=#6c8ebf;" vertex="1" parent="1">
          <mxGeometry x="315" y="460" width="90" height="20" as="geometry" />
        </mxCell>
        <mxCell id="hYAwL6fcFni5QZWfqqvK-25" value="" style="endArrow=classic;html=1;rounded=0;exitX=0.5;exitY=1;exitDx=0;exitDy=0;entryX=0.5;entryY=0;entryDx=0;entryDy=0;" edge="1" parent="1" source="hYAwL6fcFni5QZWfqqvK-20" target="hYAwL6fcFni5QZWfqqvK-21">
          <mxGeometry width="50" height="50" relative="1" as="geometry">
            <mxPoint x="610" y="570" as="sourcePoint" />
            <mxPoint x="660" y="520" as="targetPoint" />
          </mxGeometry>
        </mxCell>
        <mxCell id="hYAwL6fcFni5QZWfqqvK-26" value="" style="endArrow=classic;html=1;rounded=0;exitX=1;exitY=0.5;exitDx=0;exitDy=0;entryX=0.5;entryY=0;entryDx=0;entryDy=0;" edge="1" parent="1" source="hYAwL6fcFni5QZWfqqvK-20" target="hYAwL6fcFni5QZWfqqvK-19">
          <mxGeometry width="50" height="50" relative="1" as="geometry">
            <mxPoint x="610" y="570" as="sourcePoint" />
            <mxPoint x="660" y="520" as="targetPoint" />
            <Array as="points">
              <mxPoint x="560" y="530" />
            </Array>
          </mxGeometry>
        </mxCell>
        <mxCell id="hYAwL6fcFni5QZWfqqvK-28" value="" style="endArrow=classic;html=1;rounded=0;exitX=0;exitY=0.5;exitDx=0;exitDy=0;entryX=0.5;entryY=0;entryDx=0;entryDy=0;" edge="1" parent="1" source="hYAwL6fcFni5QZWfqqvK-20" target="hYAwL6fcFni5QZWfqqvK-23">
          <mxGeometry width="50" height="50" relative="1" as="geometry">
            <mxPoint x="610" y="570" as="sourcePoint" />
            <mxPoint x="660" y="520" as="targetPoint" />
            <Array as="points">
              <mxPoint x="335" y="530" />
            </Array>
          </mxGeometry>
        </mxCell>
        <mxCell id="hYAwL6fcFni5QZWfqqvK-57" value="" style="endArrow=classic;html=1;rounded=0;entryX=1;entryY=0.5;entryDx=0;entryDy=0;dashed=1;dashPattern=1 2;strokeWidth=1;" edge="1" parent="1" target="hYAwL6fcFni5QZWfqqvK-19">
          <mxGeometry width="50" height="50" relative="1" as="geometry">
            <mxPoint x="630" y="590" as="sourcePoint" />
            <mxPoint x="680" y="565" as="targetPoint" />
          </mxGeometry>
        </mxCell>
        <mxCell id="hYAwL6fcFni5QZWfqqvK-59" value="" style="endArrow=none;html=1;rounded=0;entryX=0.75;entryY=1;entryDx=0;entryDy=0;dashed=1;dashPattern=1 2;strokeWidth=1;startArrow=classic;startFill=1;endFill=0;" edge="1" parent="1" target="hYAwL6fcFni5QZWfqqvK-22">
          <mxGeometry width="50" height="50" relative="1" as="geometry">
            <mxPoint x="583" y="500" as="sourcePoint" />
            <mxPoint x="590" y="500" as="targetPoint" />
          </mxGeometry>
        </mxCell>
        <mxCell id="hYAwL6fcFni5QZWfqqvK-61" value="" style="endArrow=none;html=1;rounded=0;entryX=0;entryY=0.5;entryDx=0;entryDy=0;dashed=1;dashPattern=1 2;strokeWidth=1;startArrow=classic;startFill=1;endFill=0;" edge="1" parent="1" target="hYAwL6fcFni5QZWfqqvK-24">
          <mxGeometry width="50" height="50" relative="1" as="geometry">
            <mxPoint x="290" y="470" as="sourcePoint" />
            <mxPoint x="288" y="480" as="targetPoint" />
          </mxGeometry>
        </mxCell>
        <mxCell id="hYAwL6fcFni5QZWfqqvK-62" value="" style="endArrow=none;html=1;rounded=0;dashed=1;dashPattern=1 2;strokeWidth=1;startArrow=classic;startFill=1;endFill=0;" edge="1" parent="1">
          <mxGeometry width="50" height="50" relative="1" as="geometry">
            <mxPoint x="260" y="260" as="sourcePoint" />
            <mxPoint x="260" y="280" as="targetPoint" />
          </mxGeometry>
        </mxCell>
        <mxCell id="hYAwL6fcFni5QZWfqqvK-63" value="" style="endArrow=none;html=1;rounded=0;dashed=1;dashPattern=1 2;strokeWidth=1;startArrow=classic;startFill=1;endFill=0;" edge="1" parent="1">
          <mxGeometry width="50" height="50" relative="1" as="geometry">
            <mxPoint x="640" y="260" as="sourcePoint" />
            <mxPoint x="640" y="280" as="targetPoint" />
          </mxGeometry>
        </mxCell>
        <mxCell id="hYAwL6fcFni5QZWfqqvK-66" value="" style="endArrow=none;html=1;rounded=0;dashed=1;dashPattern=1 2;strokeWidth=1;entryX=0.75;entryY=1;entryDx=0;entryDy=0;startArrow=classic;startFill=1;endFill=0;" edge="1" parent="1" target="hYAwL6fcFni5QZWfqqvK-6">
          <mxGeometry width="50" height="50" relative="1" as="geometry">
            <mxPoint x="539" y="380" as="sourcePoint" />
            <mxPoint x="540" y="370" as="targetPoint" />
          </mxGeometry>
        </mxCell>
        <mxCell id="hYAwL6fcFni5QZWfqqvK-67" value="" style="endArrow=none;html=1;rounded=0;dashed=1;dashPattern=1 2;strokeWidth=1;entryX=0.25;entryY=1;entryDx=0;entryDy=0;startArrow=classic;startFill=1;endFill=0;" edge="1" parent="1" target="hYAwL6fcFni5QZWfqqvK-4">
          <mxGeometry width="50" height="50" relative="1" as="geometry">
            <mxPoint x="353" y="380" as="sourcePoint" />
            <mxPoint x="334.76" y="370" as="targetPoint" />
          </mxGeometry>
        </mxCell>
        <mxCell id="hYAwL6fcFni5QZWfqqvK-69" value="" style="endArrow=none;html=1;rounded=0;dashed=1;dashPattern=1 2;strokeWidth=1;entryX=0;entryY=0.25;entryDx=0;entryDy=0;startArrow=classic;startFill=1;endFill=0;" edge="1" parent="1" target="hYAwL6fcFni5QZWfqqvK-2">
          <mxGeometry width="50" height="50" relative="1" as="geometry">
            <mxPoint x="250" y="315" as="sourcePoint" />
            <mxPoint x="363" y="370" as="targetPoint" />
          </mxGeometry>
        </mxCell>
        <mxCell id="hYAwL6fcFni5QZWfqqvK-70" value="" style="endArrow=none;html=1;rounded=0;dashed=1;dashPattern=1 2;strokeWidth=1;entryX=1;entryY=0.25;entryDx=0;entryDy=0;startArrow=classic;startFill=1;endFill=0;" edge="1" parent="1" target="hYAwL6fcFni5QZWfqqvK-5">
          <mxGeometry width="50" height="50" relative="1" as="geometry">
            <mxPoint x="620" y="315" as="sourcePoint" />
            <mxPoint x="549" y="370" as="targetPoint" />
          </mxGeometry>
        </mxCell>
        <mxCell id="hYAwL6fcFni5QZWfqqvK-71" value="" style="endArrow=none;html=1;rounded=0;dashed=1;dashPattern=1 2;strokeWidth=1;startArrow=classic;startFill=1;endFill=0;" edge="1" parent="1">
          <mxGeometry width="50" height="50" relative="1" as="geometry">
            <mxPoint x="230" y="666" as="sourcePoint" />
            <mxPoint x="250" y="666" as="targetPoint" />
          </mxGeometry>
        </mxCell>
        <mxCell id="hYAwL6fcFni5QZWfqqvK-74" value="&lt;p style=&quot;line-height: 70%;&quot;&gt;&lt;font style=&quot;font-size: 7px;&quot;&gt;- means that the module is depended on :core:common&lt;/font&gt;&lt;/p&gt;" style="text;html=1;strokeColor=none;fillColor=none;align=left;verticalAlign=middle;whiteSpace=wrap;rounded=0;" vertex="1" parent="1">
          <mxGeometry x="253" y="655" width="110" height="30" as="geometry" />
        </mxCell>
        <mxCell id="hYAwL6fcFni5QZWfqqvK-75" value="" style="rounded=1;whiteSpace=wrap;html=1;fillColor=none;strokeColor=#d6b656;" vertex="1" parent="1">
          <mxGeometry x="220" y="640" width="140" height="60" as="geometry" />
        </mxCell>
      </root>
    </mxGraphModel>
  </diagram>
</mxfile>
